<svg width="563" height="134" viewBox="0 0 563 134" fill="none" xmlns="http://www.w3.org/2000/svg">
<g clip-path="url(#clip0_304_31)">
<g clip-path="url(#clip1_304_31)">
<path d="M63.1769 18.5605C54.6408 18.5605 47.6548 25.6703 47.6548 34.2063C47.6548 41.0727 52.1632 46.8818 58.3772 48.9205V95.9856C52.1612 98.0403 47.6548 103.957 47.6548 110.823C47.6548 119.36 54.6408 126.346 63.1769 126.346C71.713 126.346 78.7609 119.36 78.7609 110.823C78.7609 103.957 74.1926 98.0403 67.9766 95.9856V95.2375C67.9766 88.1417 70.149 85.3509 74.1487 82.8334C78.1484 80.3139 84.4323 78.7579 91.2288 77.0961C98.0274 75.4364 105.388 73.6211 111.491 69.0548C117.035 64.9074 121.032 58.2007 121.714 48.9824C127.986 46.9795 132.622 41.1146 132.622 34.2063C132.622 25.6703 125.575 18.5605 117.039 18.5605C108.502 18.5605 101.516 25.6703 101.516 34.2063C101.516 41.0308 106.021 46.8479 112.175 48.9205C111.67 55.4817 109.286 58.8091 105.755 61.4503C101.758 64.4406 95.6535 66.1782 88.9866 67.808C82.3177 69.4378 75.1362 70.8881 69.0379 74.7282C68.6708 74.9596 68.3317 75.2229 67.9766 75.4763V48.9205C74.1906 46.8818 78.7609 41.0727 78.7609 34.2063C78.7609 25.6703 71.713 18.5605 63.1769 18.5605ZM63.1769 28.1599C66.5383 28.1599 69.2234 30.845 69.2234 34.2063C69.2234 37.5697 66.5383 40.1291 63.1769 40.1291C59.8155 40.1291 57.1923 37.5697 57.1923 34.2063C57.1923 30.845 59.8155 28.1599 63.1769 28.1599ZM117.039 28.1599C120.4 28.1599 123.085 30.845 123.085 34.2063C123.085 37.5697 120.4 40.1291 117.039 40.1291C113.677 40.1291 111.054 37.5697 111.054 34.2063C111.054 30.845 113.677 28.1599 117.039 28.1599ZM39.3621 32.8977C39.1947 32.9091 39.0282 32.9304 38.8634 32.9615C37.9152 33.0822 37.0361 33.5211 36.3698 34.2063L1.21214 69.4298C0.434744 70.2195 -0.000976563 71.2831 -0.000976562 72.3912C-0.000976562 73.4993 0.434744 74.563 1.21214 75.3526L36.3698 110.51C36.7463 110.953 37.2101 111.313 37.7321 111.568C38.2542 111.823 38.8233 111.967 39.4038 111.992C39.9842 112.017 40.5636 111.922 41.1056 111.713C41.6476 111.503 42.1405 111.184 42.5536 110.776C42.9666 110.367 43.2909 109.878 43.506 109.338C43.7211 108.798 43.8225 108.22 43.8038 107.639C43.7851 107.058 43.6467 106.488 43.3973 105.963C43.1479 105.438 42.7929 104.971 42.3544 104.589L10.1891 72.4221L42.3544 40.191C42.9763 39.6055 43.4058 38.8451 43.5865 38.0103C43.7671 37.1756 43.6902 36.3056 43.366 35.5154C43.0418 34.7253 42.4855 34.052 41.7707 33.5846C41.0558 33.1173 40.216 32.8777 39.3621 32.8977ZM140.478 33.2089C139.669 33.2718 138.895 33.5667 138.249 34.0584C137.603 34.5501 137.112 35.2177 136.836 35.9812C136.56 36.7446 136.509 37.5715 136.691 38.3628C136.873 39.154 137.279 39.8761 137.861 40.4423L170.026 72.6715L137.861 104.839C137.067 105.632 136.622 106.709 136.622 107.831C136.622 108.953 137.067 110.03 137.861 110.823C138.655 111.617 139.731 112.063 140.853 112.063C141.976 112.063 143.052 111.617 143.846 110.823L179.003 75.6C179.78 74.8104 180.215 73.7472 180.215 72.6396C180.215 71.532 179.78 70.4687 179.003 69.6792L143.846 34.5195C143.173 33.797 142.268 33.3332 141.288 33.2089C141.019 33.1829 140.748 33.1829 140.478 33.2089ZM63.1769 104.777C66.5383 104.777 69.2234 107.46 69.2234 110.823C69.2234 114.185 66.5383 116.746 63.1769 116.746C59.8155 116.746 57.1923 114.185 57.1923 110.823C57.1923 107.46 59.8155 104.777 63.1769 104.777Z" fill="white"/>
</g>
</g>
<path d="M226.699 78.1844C224.171 76.7162 222.295 75.0034 221.071 72.8828H220.745V79H214.138V20.6008H221.071V37.8106L220.745 43.6016H221.071C222.295 41.481 224.171 39.7681 226.699 38.3C229.228 36.8319 232.082 36.0978 235.263 36.0978C239.015 36.0978 242.359 37.0766 245.377 38.9525C248.395 40.91 250.76 43.5201 252.555 46.8641C254.268 50.2898 255.165 54.0417 255.165 58.2014C255.165 62.4427 254.268 66.2762 252.555 69.6202C250.76 72.9643 248.395 75.5743 245.377 77.4503C242.359 79.4078 239.015 80.305 235.263 80.305C232.082 80.305 229.228 79.6525 226.699 78.1844ZM241.299 72.0671C243.42 70.7621 245.051 68.9677 246.356 66.5208C247.579 64.1555 248.232 61.3824 248.232 58.2014C248.232 55.102 247.579 52.3289 246.356 49.882C245.051 47.5166 243.42 45.6407 241.299 44.3357C239.178 43.0307 236.895 42.3782 234.529 42.3782C232.082 42.3782 229.799 43.0307 227.678 44.3357C225.557 45.6407 223.926 47.5166 222.621 49.882C221.316 52.3289 220.745 55.102 220.745 58.2014C220.745 61.3824 221.316 64.1555 222.621 66.5208C223.926 68.9677 225.557 70.7621 227.678 72.0671C229.799 73.3721 232.082 74.0247 234.529 74.0247C236.895 74.0247 239.178 73.3721 241.299 72.0671ZM271.034 77.4503C267.853 75.5743 265.406 72.9643 263.612 69.6202C261.817 66.2762 261.002 62.5243 261.002 58.283C261.002 54.3679 261.817 50.6976 263.448 47.272C265.08 43.8463 267.445 41.1547 270.544 39.1156C273.644 37.1581 277.151 36.0978 281.148 36.0978C285.226 36.0978 288.733 37.0766 291.751 38.871C294.687 40.6653 296.971 43.1938 298.602 46.3748C300.233 49.6373 301.049 53.3076 301.049 57.3858C301.049 58.0383 300.967 58.7724 300.886 59.5064H267.934C268.098 62.6874 268.832 65.379 270.218 67.4996C271.523 69.7018 273.236 71.3331 275.357 72.3934C277.477 73.5353 279.68 74.0247 281.963 74.0247C287.346 74.0247 291.506 71.5778 294.279 66.5208L300.152 69.3756C298.357 72.7196 295.992 75.4112 292.893 77.3687C289.793 79.3263 286.041 80.305 281.719 80.305C277.722 80.305 274.133 79.4078 271.034 77.4503ZM293.708 53.797C293.545 52.0842 293.056 50.3714 292.24 48.577C291.343 46.8641 289.956 45.396 288.162 44.1726C286.286 43.0307 283.921 42.3782 281.148 42.3782C277.885 42.3782 275.112 43.4385 272.828 45.5591C270.544 47.6798 268.995 50.3714 268.342 53.797H293.708ZM303.799 37.4028H310.976L320.845 70.2727H320.927L331.449 37.4028H338.544L349.066 70.1912H349.148L359.017 37.4028H366.031L352.573 79H345.559L334.793 45.8038L324.108 79H317.175L303.799 37.4028ZM379.129 77.3687C375.866 75.4112 373.256 72.8012 371.462 69.3756C369.667 66.0315 368.77 62.2796 368.77 58.2014C368.77 54.1233 369.667 50.4529 371.462 47.0273C373.256 43.6832 375.866 40.9916 379.129 39.0341C382.391 37.0766 386.061 36.0978 390.14 36.0978C394.218 36.0978 397.888 37.0766 401.151 39.0341C404.413 40.9916 406.942 43.6832 408.736 47.0273C410.53 50.4529 411.509 54.1233 411.509 58.2014C411.509 62.2796 410.53 66.0315 408.736 69.3756C406.942 72.8012 404.413 75.4112 401.151 77.3687C397.888 79.3263 394.218 80.305 390.14 80.305C386.061 80.305 382.391 79.3263 379.129 77.3687ZM397.236 72.1487C399.438 70.8437 401.232 69.0493 402.537 66.6024C403.842 64.2371 404.576 61.4639 404.576 58.2014C404.576 55.0205 403.842 52.2473 402.537 49.8004C401.232 47.4351 399.438 45.6407 397.236 44.3357C395.033 43.0307 392.668 42.3782 390.14 42.3782C387.53 42.3782 385.164 43.0307 382.962 44.3357C380.678 45.6407 378.884 47.4351 377.579 49.8004C376.274 52.2473 375.621 55.0205 375.621 58.2014C375.621 61.4639 376.274 64.2371 377.579 66.6024C378.884 69.0493 380.678 70.8437 382.962 72.1487C385.164 73.4537 387.53 74.0247 390.14 74.0247C392.668 74.0247 395.033 73.4537 397.236 72.1487ZM418.763 37.4028H425.37V44.091H425.696C426.512 41.8072 428.061 39.9313 430.427 38.4631C432.71 36.995 435.157 36.1794 437.767 36.1794C439.643 36.1794 441.274 36.5056 442.661 36.995V44.4988C440.867 43.6832 438.909 43.1938 436.789 43.1938C434.749 43.1938 432.873 43.7647 431.242 44.9066C429.529 46.0485 428.143 47.5982 427.164 49.5557C426.185 51.5132 425.696 53.5523 425.696 55.7545V79H418.763V37.4028ZM449.747 20.6008H456.68V57.3042L476.256 37.4028H485.064V37.7291L468.752 54.2048L485.554 78.6737V79H477.234L463.858 59.017L456.68 66.1946V79H449.747V20.6008ZM493.475 77.2056C490.457 75.085 488.336 72.3934 487.113 69.1309L493.312 66.3577C494.291 68.8862 495.84 70.8437 497.879 72.1487C499.918 73.5353 502.202 74.1878 504.649 74.1878C507.259 74.1878 509.461 73.6984 511.337 72.6381C513.132 71.5778 514.11 70.0281 514.11 68.0705C514.11 66.3577 513.376 64.9711 511.908 63.9108C510.44 62.8505 508.075 61.9533 504.975 61.1377L499.918 59.8327C496.574 59.017 493.883 57.6305 491.762 55.673C489.641 53.7154 488.581 51.187 488.581 48.0876C488.581 45.7223 489.234 43.6016 490.702 41.8072C492.17 40.0128 494.046 38.5447 496.493 37.5659C498.858 36.5872 501.468 36.0978 504.241 36.0978C507.83 36.0978 511.093 36.9134 513.947 38.4631C516.802 40.0944 518.841 42.2966 520.064 45.0698L514.029 47.8429C512.153 44.1726 508.89 42.2966 504.16 42.2966C501.876 42.2966 499.837 42.8675 498.124 43.9279C496.411 44.9882 495.596 46.2932 495.596 47.9245C495.596 49.4742 496.166 50.6976 497.39 51.6764C498.532 52.6551 500.326 53.3892 502.773 53.9601L508.809 55.5098C512.887 56.5701 515.905 58.1198 518.025 60.1589C520.064 62.198 521.125 64.6449 521.125 67.5812C521.125 70.1912 520.391 72.3934 518.923 74.3509C517.454 76.3084 515.415 77.7766 512.968 78.7553C510.44 79.8156 507.667 80.305 504.649 80.305C500.163 80.305 496.411 79.3263 493.475 77.2056Z" fill="white"/>
<path d="M220.822 116.934L214.308 106.571H216.973L221.899 114.646H222.007L226.852 106.571H229.517L223.11 116.934V125.844H220.822V116.934ZM231.619 125.305C230.543 124.659 229.681 123.798 229.089 122.667C228.497 121.564 228.201 120.326 228.201 118.98C228.201 117.634 228.497 116.423 229.089 115.292C229.681 114.188 230.543 113.3 231.619 112.654C232.696 112.008 233.907 111.685 235.253 111.685C236.599 111.685 237.81 112.008 238.887 112.654C239.964 113.3 240.798 114.188 241.39 115.292C241.983 116.423 242.306 117.634 242.306 118.98C242.306 120.326 241.983 121.564 241.39 122.667C240.798 123.798 239.964 124.659 238.887 125.305C237.81 125.951 236.599 126.274 235.253 126.274C233.907 126.274 232.696 125.951 231.619 125.305ZM237.595 123.583C238.322 123.152 238.914 122.56 239.345 121.752C239.775 120.972 240.018 120.056 240.018 118.98C240.018 117.93 239.775 117.015 239.345 116.207C238.914 115.427 238.322 114.834 237.595 114.404C236.868 113.973 236.088 113.758 235.253 113.758C234.392 113.758 233.611 113.973 232.884 114.404C232.131 114.834 231.539 115.427 231.108 116.207C230.677 117.015 230.462 117.93 230.462 118.98C230.462 120.056 230.677 120.972 231.108 121.752C231.539 122.56 232.131 123.152 232.884 123.583C233.611 124.013 234.392 124.202 235.253 124.202C236.088 124.202 236.868 124.013 237.595 123.583ZM246.015 124.821C245.154 123.852 244.723 122.506 244.723 120.756V112.116H247.011V120.406C247.011 121.725 247.308 122.694 247.9 123.287C248.492 123.906 249.273 124.202 250.295 124.202C251.049 124.202 251.749 124.013 252.341 123.583C252.933 123.179 253.418 122.641 253.741 121.968C254.064 121.322 254.252 120.622 254.252 119.868V112.116H256.54V125.844H254.36V123.852H254.252C253.875 124.552 253.256 125.117 252.449 125.575C251.614 126.059 250.726 126.274 249.811 126.274C248.142 126.274 246.877 125.79 246.015 124.821ZM259.92 112.116H262.1V114.323H262.208C262.477 113.569 262.988 112.95 263.769 112.466C264.523 111.981 265.33 111.712 266.192 111.712C266.811 111.712 267.349 111.82 267.807 111.981V114.458C267.214 114.188 266.568 114.027 265.869 114.027C265.196 114.027 264.577 114.215 264.038 114.592C263.473 114.969 263.015 115.48 262.692 116.126C262.369 116.772 262.208 117.445 262.208 118.172V125.844H259.92V112.116ZM275.905 125.117C274.828 124.336 274.101 123.233 273.671 121.806L275.824 120.918C276.47 123.044 277.735 124.094 279.62 124.094C280.669 124.094 281.504 123.744 282.15 122.99C282.796 122.264 283.119 121.295 283.119 120.083V106.571H285.407V119.895C285.407 121.241 285.138 122.398 284.653 123.367C284.169 124.336 283.469 125.063 282.607 125.548C281.746 126.032 280.75 126.274 279.62 126.274C278.193 126.274 276.955 125.898 275.905 125.117ZM291.369 125.305C290.293 124.659 289.431 123.798 288.839 122.667C288.247 121.564 287.951 120.326 287.951 118.98C287.951 117.634 288.247 116.423 288.839 115.292C289.431 114.188 290.293 113.3 291.369 112.654C292.446 112.008 293.657 111.685 295.003 111.685C296.349 111.685 297.56 112.008 298.637 112.654C299.714 113.3 300.548 114.188 301.141 115.292C301.733 116.423 302.056 117.634 302.056 118.98C302.056 120.326 301.733 121.564 301.141 122.667C300.548 123.798 299.714 124.659 298.637 125.305C297.56 125.951 296.349 126.274 295.003 126.274C293.657 126.274 292.446 125.951 291.369 125.305ZM297.345 123.583C298.072 123.152 298.664 122.56 299.095 121.752C299.525 120.972 299.768 120.056 299.768 118.98C299.768 117.93 299.525 117.015 299.095 116.207C298.664 115.427 298.072 114.834 297.345 114.404C296.618 113.973 295.838 113.758 295.003 113.758C294.142 113.758 293.361 113.973 292.635 114.404C291.881 114.834 291.289 115.427 290.858 116.207C290.427 117.015 290.212 117.93 290.212 118.98C290.212 120.056 290.427 120.972 290.858 121.752C291.289 122.56 291.881 123.152 292.635 123.583C293.361 124.013 294.142 124.202 295.003 124.202C295.838 124.202 296.618 124.013 297.345 123.583ZM308.726 125.575C307.892 125.09 307.273 124.525 306.869 123.825H306.761V125.844H304.581V106.571H306.869V112.25L306.761 114.161H306.869C307.273 113.462 307.892 112.896 308.726 112.412C309.561 111.927 310.503 111.685 311.553 111.685C312.791 111.685 313.895 112.008 314.891 112.627C315.887 113.273 316.667 114.135 317.259 115.238C317.825 116.369 318.121 117.607 318.121 118.98C318.121 120.379 317.825 121.645 317.259 122.748C316.667 123.852 315.887 124.713 314.891 125.332C313.895 125.978 312.791 126.274 311.553 126.274C310.503 126.274 309.561 126.059 308.726 125.575ZM313.545 123.556C314.245 123.125 314.783 122.533 315.214 121.725C315.617 120.945 315.833 120.03 315.833 118.98C315.833 117.957 315.617 117.042 315.214 116.234C314.783 115.453 314.245 114.834 313.545 114.404C312.845 113.973 312.091 113.758 311.311 113.758C310.503 113.758 309.749 113.973 309.049 114.404C308.35 114.834 307.811 115.453 307.381 116.234C306.95 117.042 306.761 117.957 306.761 118.98C306.761 120.03 306.95 120.945 307.381 121.725C307.811 122.533 308.35 123.125 309.049 123.556C309.749 123.986 310.503 124.202 311.311 124.202C312.091 124.202 312.845 123.986 313.545 123.556ZM327.003 116.557H335.536V118.441H327.003V116.557ZM349.003 124.929C347.496 124.04 346.311 122.829 345.45 121.268C344.588 119.733 344.158 118.038 344.158 116.207C344.158 114.377 344.588 112.708 345.45 111.147C346.311 109.612 347.496 108.401 349.003 107.486C350.51 106.598 352.179 106.14 354.037 106.14C355.867 106.14 357.563 106.598 359.07 107.486C360.578 108.401 361.762 109.612 362.623 111.147C363.485 112.708 363.915 114.377 363.915 116.207C363.915 118.038 363.485 119.733 362.623 121.268C361.762 122.829 360.578 124.04 359.07 124.929C357.563 125.844 355.867 126.274 354.037 126.274C352.179 126.274 350.51 125.844 349.003 124.929ZM357.832 123.098C358.989 122.425 359.905 121.483 360.578 120.299C361.251 119.114 361.601 117.742 361.601 116.207C361.601 114.7 361.251 113.327 360.578 112.143C359.905 110.958 358.989 110.016 357.832 109.343C356.675 108.67 355.409 108.32 354.037 108.32C352.637 108.32 351.372 108.67 350.214 109.343C349.057 110.016 348.142 110.958 347.469 112.143C346.796 113.327 346.473 114.7 346.473 116.207C346.473 117.742 346.796 119.114 347.469 120.299C348.142 121.483 349.057 122.425 350.214 123.098C351.372 123.771 352.637 124.094 354.037 124.094C355.409 124.094 356.675 123.771 357.832 123.098ZM368.013 124.821C367.151 123.852 366.721 122.506 366.721 120.756V112.116H369.009V120.406C369.009 121.725 369.305 122.694 369.897 123.287C370.489 123.906 371.27 124.202 372.293 124.202C373.046 124.202 373.746 124.013 374.338 123.583C374.931 123.179 375.415 122.641 375.738 121.968C376.061 121.322 376.25 120.622 376.25 119.868V112.116H378.538V125.844H376.357V123.852H376.25C375.873 124.552 375.254 125.117 374.446 125.575C373.612 126.059 372.723 126.274 371.808 126.274C370.139 126.274 368.874 125.79 368.013 124.821ZM381.917 112.116H384.097V114.323H384.205C384.474 113.569 384.986 112.95 385.766 112.466C386.52 111.981 387.328 111.712 388.189 111.712C388.808 111.712 389.346 111.82 389.804 111.981V114.458C389.212 114.188 388.566 114.027 387.866 114.027C387.193 114.027 386.574 114.215 386.036 114.592C385.47 114.969 385.013 115.48 384.69 116.126C384.367 116.772 384.205 117.445 384.205 118.172V125.844H381.917V112.116ZM402.156 124.955C400.622 124.094 399.411 122.883 398.549 121.348C397.688 119.814 397.257 118.091 397.257 116.207C397.257 114.323 397.688 112.627 398.549 111.093C399.411 109.559 400.622 108.347 402.156 107.459C403.664 106.598 405.36 106.14 407.244 106.14C408.67 106.14 409.989 106.409 411.174 106.947C412.358 107.486 413.408 108.266 414.296 109.289L412.654 110.877C411.901 110.016 411.093 109.37 410.232 108.939C409.37 108.536 408.374 108.32 407.244 108.32C405.844 108.32 404.552 108.67 403.395 109.316C402.21 109.962 401.295 110.904 400.595 112.089C399.895 113.273 399.572 114.646 399.572 116.207C399.572 117.768 399.895 119.168 400.595 120.353C401.295 121.537 402.21 122.479 403.395 123.125C404.552 123.771 405.844 124.094 407.244 124.094C409.559 124.094 411.551 123.152 413.193 121.214L414.861 122.829C413.973 123.906 412.87 124.74 411.551 125.359C410.232 125.978 408.805 126.274 407.244 126.274C405.36 126.274 403.664 125.844 402.156 124.955ZM417.431 112.116H419.611V114.323H419.719C419.988 113.569 420.499 112.95 421.28 112.466C422.034 111.981 422.841 111.712 423.702 111.712C424.322 111.712 424.86 111.82 425.318 111.981V114.458C424.725 114.188 424.079 114.027 423.379 114.027C422.707 114.027 422.087 114.215 421.549 114.592C420.984 114.969 420.526 115.48 420.203 116.126C419.88 116.772 419.719 117.445 419.719 118.172V125.844H417.431V112.116ZM429.294 125.332C428.244 124.713 427.437 123.852 426.844 122.748C426.252 121.645 425.983 120.406 425.983 119.007C425.983 117.715 426.252 116.503 426.791 115.373C427.329 114.242 428.11 113.354 429.132 112.681C430.155 112.035 431.313 111.685 432.632 111.685C433.978 111.685 435.135 112.008 436.131 112.6C437.1 113.192 437.854 114.027 438.392 115.077C438.931 116.153 439.2 117.365 439.2 118.711C439.2 118.926 439.173 119.168 439.146 119.41H428.271C428.325 120.46 428.567 121.348 429.025 122.048C429.456 122.775 430.021 123.313 430.721 123.663C431.421 124.04 432.147 124.202 432.901 124.202C434.678 124.202 436.05 123.394 436.966 121.725L438.904 122.667C438.311 123.771 437.531 124.659 436.508 125.305C435.485 125.951 434.247 126.274 432.82 126.274C431.501 126.274 430.317 125.978 429.294 125.332ZM436.777 117.526C436.723 116.961 436.562 116.396 436.293 115.803C435.997 115.238 435.539 114.754 434.947 114.35C434.328 113.973 433.547 113.758 432.632 113.758C431.555 113.758 430.64 114.108 429.886 114.807C429.132 115.507 428.621 116.396 428.406 117.526H436.777ZM444.485 125.332C443.489 124.713 442.709 123.852 442.143 122.748C441.551 121.645 441.282 120.379 441.282 118.98C441.282 117.607 441.551 116.369 442.143 115.238C442.709 114.135 443.489 113.273 444.485 112.627C445.481 112.008 446.612 111.685 447.85 111.685C448.873 111.685 449.815 111.927 450.649 112.412C451.457 112.896 452.103 113.462 452.534 114.161H452.641L452.534 112.25V106.571H454.822V125.844H452.641V123.825H452.534C452.103 124.525 451.457 125.09 450.649 125.575C449.815 126.059 448.873 126.274 447.85 126.274C446.612 126.274 445.481 125.978 444.485 125.332ZM450.326 123.556C451.026 123.125 451.565 122.533 451.995 121.725C452.426 120.945 452.641 120.03 452.641 118.98C452.641 117.957 452.426 117.042 451.995 116.234C451.565 115.453 451.026 114.834 450.326 114.404C449.627 113.973 448.9 113.758 448.092 113.758C447.285 113.758 446.558 113.973 445.858 114.404C445.158 114.834 444.593 115.453 444.162 116.261C443.732 117.069 443.543 117.957 443.543 118.98C443.543 120.003 443.732 120.918 444.162 121.725C444.593 122.533 445.158 123.125 445.858 123.556C446.558 123.986 447.285 124.202 448.092 124.202C448.9 124.202 449.627 123.986 450.326 123.556ZM458.39 109.101C458.067 108.778 457.905 108.401 457.905 107.943C457.905 107.486 458.067 107.109 458.39 106.786C458.713 106.463 459.09 106.301 459.547 106.301C460.005 106.301 460.382 106.463 460.705 106.786C461.028 107.109 461.189 107.486 461.189 107.943C461.189 108.401 461.028 108.778 460.705 109.101C460.382 109.424 460.005 109.585 459.547 109.585C459.09 109.585 458.713 109.424 458.39 109.101ZM458.417 112.116H460.705V125.844H458.417V112.116ZM468.419 125.575C467.585 125.09 466.966 124.525 466.562 123.825H466.454V125.844H464.274V106.571H466.562V112.25L466.454 114.161H466.562C466.966 113.462 467.585 112.896 468.419 112.412C469.254 111.927 470.196 111.685 471.246 111.685C472.484 111.685 473.587 112.008 474.583 112.627C475.579 113.273 476.36 114.135 476.952 115.238C477.517 116.369 477.813 117.607 477.813 118.98C477.813 120.379 477.517 121.645 476.952 122.748C476.36 123.852 475.579 124.713 474.583 125.332C473.587 125.978 472.484 126.274 471.246 126.274C470.196 126.274 469.254 126.059 468.419 125.575ZM473.237 123.556C473.937 123.125 474.476 122.533 474.906 121.725C475.31 120.945 475.525 120.03 475.525 118.98C475.525 117.957 475.31 117.042 474.906 116.234C474.476 115.453 473.937 114.834 473.237 114.404C472.538 113.973 471.784 113.758 471.003 113.758C470.196 113.758 469.442 113.973 468.742 114.404C468.042 114.834 467.504 115.453 467.073 116.234C466.643 117.042 466.454 117.957 466.454 118.98C466.454 120.03 466.643 120.945 467.073 121.725C467.504 122.533 468.042 123.125 468.742 123.556C469.442 123.986 470.196 124.202 471.003 124.202C471.784 124.202 472.538 123.986 473.237 123.556ZM480.524 109.101C480.201 108.778 480.039 108.401 480.039 107.943C480.039 107.486 480.201 107.109 480.524 106.786C480.847 106.463 481.223 106.301 481.681 106.301C482.139 106.301 482.515 106.463 482.838 106.786C483.161 107.109 483.323 107.486 483.323 107.943C483.323 108.401 483.161 108.778 482.838 109.101C482.515 109.424 482.139 109.585 481.681 109.585C481.223 109.585 480.847 109.424 480.524 109.101ZM480.55 112.116H482.838V125.844H480.55V112.116ZM486.407 106.571H488.695V125.844H486.407V106.571ZM492.274 109.101C491.951 108.778 491.789 108.401 491.789 107.943C491.789 107.486 491.951 107.109 492.274 106.786C492.597 106.463 492.974 106.301 493.431 106.301C493.889 106.301 494.266 106.463 494.589 106.786C494.912 107.109 495.073 107.486 495.073 107.943C495.073 108.401 494.912 108.778 494.589 109.101C494.266 109.424 493.889 109.585 493.431 109.585C492.974 109.585 492.597 109.424 492.274 109.101ZM492.301 112.116H494.589V125.844H492.301V112.116ZM501.741 125.79C501.256 125.628 500.879 125.386 500.556 125.063C499.83 124.39 499.48 123.448 499.48 122.237V114.188H497.084V112.116H499.48V108.24H501.768V112.116H505.132V114.188H501.768V121.671C501.768 122.425 501.902 122.99 502.198 123.34C502.521 123.744 503.033 123.933 503.679 123.933C504.217 123.933 504.729 123.798 505.186 123.475V125.709C504.917 125.844 504.621 125.925 504.352 125.978C504.083 126.032 503.733 126.059 503.302 126.059C502.737 126.059 502.225 125.978 501.741 125.79ZM512.214 124.982L506.535 112.116H509.011L513.318 122.318H513.372L517.517 112.116H519.994L511.514 131.658H509.146L512.214 124.982Z" fill="white"/>
<path d="M214 95.1113H521.003" stroke="white" strokeWidth="2"/>
<defs>
<clipPath id="clip0_304_31">
<rect width="180.216" height="107.785" fill="white" transform="translate(0 18.5586)"/>
</clipPath>
<clipPath id="clip1_304_31">
<rect width="180.216" height="107.785" fill="white" transform="translate(0 18.5605)"/>
</clipPath>
</defs>
</svg>
