<svg xmlns="http://www.w3.org/2000/svg" version="1.1" xmlns:xlink="http://www.w3.org/1999/xlink" xmlns:svgjs="http://svgjs.dev/svgjs" width="1500" height="321" viewBox="0 0 1500 321"><g transform="matrix(1,0,0,1,-0.8662604903091733,-0.5603104032619228)"><svg viewBox="0 0 396 85" data-background-color="#ffffff" preserveAspectRatio="xMidYMid meet" height="321" width="1500" xmlns="http://www.w3.org/2000/svg" xmlns:xlink="http://www.w3.org/1999/xlink"><g id="tight-bounds" transform="matrix(1,0,0,1,0.2400000000000091,0.1483687983715356)"><svg viewBox="0 0 395.52 84.70326240325693" height="84.70326240325693" width="395.52"><g><svg viewBox="0 0 566.0766878174236 121.22912173484474" height="84.70326240325693" width="395.52"><g><rect width="7.910685460565796" height="105.26407097092162" x="141.93740167474834" y="7.982525381961558" fill="#ffffff" opacity="1" stroke-width="0" stroke="transparent" fill-opacity="1" class="rect-qz-0" data-fill-palette-color="primary" rx="1%" id="qz-0" data-palette-color="#ffffff"></rect></g><g transform="matrix(1,0,0,1,170.55668781742355,16.754531296205023)"><svg viewBox="0 0 395.52 87.72005914243469" height="87.72005914243469" width="395.52"><g id="textblocktransform"><svg viewBox="0 0 395.52 87.72005914243469" height="87.72005914243469" width="395.52" id="textblock"><g><svg viewBox="0 0 395.52 87.72005914243469" height="87.72005914243469" width="395.52"><g transform="matrix(1,0,0,1,0,0)"><svg width="395.52" viewBox="4.35 -35.5 202.89000000000001 45" height="87.72005914243469" data-palette-color="#ffffff"><path d="M7.95 0L5.5 0Q5 0 4.67-0.33 4.35-0.65 4.35-1.15L4.35-1.15 4.35-33.8Q4.35-34.35 4.67-34.68 5-35 5.5-35L5.5-35 8-35Q8.6-35 8.9-34.7 9.2-34.4 9.3-34.2L9.3-34.2 19.85-14 30.5-34.2Q30.6-34.4 30.88-34.7 31.15-35 31.75-35L31.75-35 34.2-35Q34.75-35 35.08-34.68 35.4-34.35 35.4-33.8L35.4-33.8 35.4-1.15Q35.4-0.65 35.08-0.33 34.75 0 34.2 0L34.2 0 31.75 0Q31.25 0 30.93-0.33 30.6-0.65 30.6-1.15L30.6-1.15 30.6-25.75 22.25-9.45Q22.05-8.95 21.65-8.68 21.25-8.4 20.65-8.4L20.65-8.4 19.1-8.4Q18.45-8.4 18.1-8.68 17.75-8.95 17.5-9.45L17.5-9.45 9.1-25.75 9.1-1.15Q9.1-0.65 8.78-0.33 8.45 0 7.95 0L7.95 0ZM50.65 0.5L50.65 0.5Q48.15 0.5 46.1-0.5 44.05-1.5 42.8-3.2 41.55-4.9 41.55-7.05L41.55-7.05Q41.55-10.5 44.35-12.55 47.15-14.6 51.65-15.25L51.65-15.25 59.1-16.3 59.1-17.75Q59.1-20.15 57.72-21.5 56.35-22.85 53.25-22.85L53.25-22.85Q51.05-22.85 49.65-21.95 48.25-21.05 47.7-19.65L47.7-19.65Q47.4-18.9 46.65-18.9L46.65-18.9 44.4-18.9Q43.85-18.9 43.57-19.23 43.3-19.55 43.3-20L43.3-20Q43.3-20.75 43.87-21.85 44.45-22.95 45.65-24 46.85-25.05 48.72-25.78 50.6-26.5 53.3-26.5L53.3-26.5Q56.3-26.5 58.35-25.73 60.4-24.95 61.57-23.65 62.75-22.35 63.27-20.7 63.8-19.05 63.8-17.35L63.8-17.35 63.8-1.15Q63.8-0.65 63.47-0.33 63.15 0 62.65 0L62.65 0 60.35 0Q59.8 0 59.5-0.33 59.2-0.65 59.2-1.15L59.2-1.15 59.2-3.3Q58.55-2.4 57.45-1.53 56.35-0.65 54.7-0.08 53.05 0.5 50.65 0.5ZM51.7-3.25L51.7-3.25Q53.75-3.25 55.45-4.13 57.15-5 58.12-6.85 59.1-8.7 59.1-11.5L59.1-11.5 59.1-12.9 53.3-12.05Q49.75-11.55 47.95-10.38 46.15-9.2 46.15-7.4L46.15-7.4Q46.15-6 46.97-5.08 47.8-4.15 49.07-3.7 50.35-3.25 51.7-3.25ZM84.6 0L81.15 0Q78.35 0 76.6-1.07 74.85-2.15 74.05-4.13 73.25-6.1 73.25-8.8L73.25-8.8 73.25-22 69.35-22Q68.85-22 68.52-22.33 68.2-22.65 68.2-23.15L68.2-23.15 68.2-24.85Q68.2-25.35 68.52-25.68 68.85-26 69.35-26L69.35-26 73.25-26 73.25-34.35Q73.25-34.85 73.57-35.18 73.9-35.5 74.4-35.5L74.4-35.5 76.75-35.5Q77.25-35.5 77.57-35.18 77.9-34.85 77.9-34.35L77.9-34.35 77.9-26 84.1-26Q84.65-26 84.95-25.68 85.25-25.35 85.25-24.85L85.25-24.85 85.25-23.15Q85.25-22.65 84.95-22.33 84.65-22 84.1-22L84.1-22 77.9-22 77.9-9.15Q77.9-6.8 78.7-5.45 79.5-4.1 81.55-4.1L81.55-4.1 84.6-4.1Q85.1-4.1 85.42-3.78 85.75-3.45 85.75-2.95L85.75-2.95 85.75-1.15Q85.75-0.65 85.42-0.33 85.1 0 84.6 0L84.6 0ZM101.04 0.5L101.04 0.5Q97.49 0.5 94.92-0.88 92.34-2.25 90.94-4.83 89.54-7.4 89.44-11L89.44-11Q89.39-11.75 89.39-13 89.39-14.25 89.44-15L89.44-15Q89.54-18.6 90.94-21.18 92.34-23.75 94.92-25.13 97.49-26.5 101.04-26.5L101.04-26.5Q103.94-26.5 106.02-25.7 108.09-24.9 109.44-23.65 110.79-22.4 111.47-20.95 112.14-19.5 112.19-18.2L112.19-18.2Q112.24-17.7 111.89-17.4 111.54-17.1 111.04-17.1L111.04-17.1 108.64-17.1Q108.14-17.1 107.89-17.32 107.64-17.55 107.39-18.1L107.39-18.1Q106.49-20.55 104.94-21.55 103.39-22.55 101.09-22.55L101.09-22.55Q98.09-22.55 96.22-20.7 94.34-18.85 94.19-14.75L94.19-14.75Q94.14-12.95 94.19-11.25L94.19-11.25Q94.34-7.1 96.22-5.28 98.09-3.45 101.09-3.45L101.09-3.45Q103.39-3.45 104.94-4.45 106.49-5.45 107.39-7.9L107.39-7.9Q107.64-8.45 107.89-8.7 108.14-8.95 108.64-8.95L108.64-8.95 111.04-8.95Q111.54-8.95 111.89-8.63 112.24-8.3 112.19-7.8L112.19-7.8Q112.14-6.75 111.74-5.65 111.34-4.55 110.47-3.43 109.59-2.3 108.29-1.43 106.99-0.55 105.19-0.03 103.39 0.5 101.04 0.5ZM121.84 0L119.34 0Q118.84 0 118.52-0.33 118.19-0.65 118.19-1.15L118.19-1.15 118.19-34.35Q118.19-34.85 118.52-35.18 118.84-35.5 119.34-35.5L119.34-35.5 121.84-35.5Q122.39-35.5 122.69-35.18 122.99-34.85 122.99-34.35L122.99-34.35 122.99-22.7Q124.34-24.4 126.29-25.45 128.24-26.5 131.24-26.5L131.24-26.5Q134.49-26.5 136.77-25.08 139.04-23.65 140.22-21.13 141.39-18.6 141.39-15.25L141.39-15.25 141.39-1.15Q141.39-0.65 141.09-0.33 140.79 0 140.24 0L140.24 0 137.74 0Q137.24 0 136.92-0.33 136.59-0.65 136.59-1.15L136.59-1.15 136.59-15Q136.59-18.5 134.89-20.48 133.19-22.45 129.89-22.45L129.89-22.45Q126.79-22.45 124.89-20.48 122.99-18.5 122.99-15L122.99-15 122.99-1.15Q122.99-0.65 122.69-0.33 122.39 0 121.84 0L121.84 0ZM162.44 0.5L162.44 0.5Q158.24 0.5 155.21-1 152.19-2.5 150.56-5.58 148.94-8.65 148.94-13.5L148.94-13.5 148.94-33.8Q148.94-34.35 149.24-34.68 149.54-35 150.09-35L150.09-35 152.64-35Q153.19-35 153.51-34.68 153.84-34.35 153.84-33.8L153.84-33.8 153.84-13.4Q153.84-8.5 156.14-6.15 158.44-3.8 162.44-3.8L162.44-3.8Q166.39-3.8 168.71-6.15 171.04-8.5 171.04-13.4L171.04-13.4 171.04-33.8Q171.04-34.35 171.36-34.68 171.69-35 172.19-35L172.19-35 174.79-35Q175.29-35 175.61-34.68 175.94-34.35 175.94-33.8L175.94-33.8 175.94-13.5Q175.94-8.65 174.31-5.58 172.69-2.5 169.69-1 166.69 0.5 162.44 0.5ZM187.29 9.5L184.84 9.5Q184.34 9.5 184.01 9.18 183.69 8.85 183.69 8.35L183.69 8.35 183.69-24.85Q183.69-25.35 184.01-25.68 184.34-26 184.84-26L184.84-26 187.14-26Q187.64-26 187.96-25.68 188.29-25.35 188.29-24.85L188.29-24.85 188.29-22.65Q189.49-24.3 191.49-25.4 193.49-26.5 196.49-26.5L196.49-26.5Q199.29-26.5 201.26-25.55 203.24-24.6 204.51-22.95 205.79-21.3 206.44-19.2 207.09-17.1 207.19-14.7L207.19-14.7Q207.24-13.9 207.24-13 207.24-12.1 207.19-11.3L207.19-11.3Q207.09-8.95 206.44-6.83 205.79-4.7 204.51-3.08 203.24-1.45 201.26-0.48 199.29 0.5 196.49 0.5L196.49 0.5Q193.59 0.5 191.61-0.58 189.64-1.65 188.39-3.25L188.39-3.25 188.39 8.35Q188.39 8.85 188.09 9.18 187.79 9.5 187.29 9.5L187.29 9.5ZM195.44-3.55L195.44-3.55Q198.04-3.55 199.51-4.67 200.99-5.8 201.64-7.63 202.29-9.45 202.39-11.55L202.39-11.55Q202.44-13 202.39-14.45L202.39-14.45Q202.29-16.55 201.64-18.38 200.99-20.2 199.51-21.33 198.04-22.45 195.44-22.45L195.44-22.45Q192.99-22.45 191.46-21.3 189.94-20.15 189.21-18.38 188.49-16.6 188.39-14.75L188.39-14.75Q188.34-13.95 188.34-12.85 188.34-11.75 188.39-10.9L188.39-10.9Q188.44-9.15 189.21-7.45 189.99-5.75 191.54-4.65 193.09-3.55 195.44-3.55Z" opacity="1" transform="matrix(1,0,0,1,0,0)" fill="#ffffff" class="wordmark-text-0" data-fill-palette-color="primary" id="text-0"></path></svg></g></svg></g></svg></g></svg></g><g><svg viewBox="0 0 121.22880099263894 121.22912173484474" height="121.22912173484474" width="121.22880099263894"><g><svg xmlns="http://www.w3.org/2000/svg" viewBox="2 1.9998412544528084 60 60.00015874554719" x="0" y="0" height="121.22912173484474" width="121.22880099263894" class="icon-icon-0" data-fill-palette-color="accent" id="icon-0"><g fill="#ffffff" data-fill-palette-color="accent"><path d="M5 8A1 1 0 0 0 4 9V21a1 1 0 0 0 1 1H17a1 1 0 0 0 1-1V9a1 1 0 0 0-1-1ZM16 20H6V14H16Zm0-8H6V10H16Z" fill="#ffffff" data-fill-palette-color="accent"></path><path d="M3 62h8a1 1 0 0 0 1-1V57a1 1 0 0 0-1-1H8.28l1.69-6.757A1 1 0 0 0 10 49V42h0.382L18 57.236V61a1 1 0 0 0 1 1h8a1 1 0 0 0 1-1V57a1 1 0 0 0-1-1H24.618L17.531 41.826A0.982 0.982 0 0 0 18 41V36h3a1 1 0 0 0 1-1V31a1 1 0 0 0-1-1H18V25a1 1 0 0 0-1-1H5a1 1 0 0 0-1 1V48.877l-1.97 7.88A2.016 2.016 0 0 0 2 57v4A1 1 0 0 0 3 62Zm23-4v2H20V58Zm-3.618-2H19.618l-7-14h2.764ZM16 26v4H14V27a2.966 2.966 0 0 0-0.184-1Zm-6 1a1 1 0 0 1 2 0v4a1 1 0 0 0 1 1h7v2H10ZM6 26H8.184A2.966 2.966 0 0 0 8 27v8a1 1 0 0 0 1 1h7v4H6ZM5.97 49.243A1 1 0 0 0 6 49V42H8v6.877L6.219 56H4.281ZM4 58h6v2H4Z" fill="#ffffff" data-fill-palette-color="accent"></path><path d="M61.925 56.626A1.95 1.95 0 0 0 61.8 56.4L56 48.667V42h1a1 1 0 0 0 1-1V25a1 1 0 0 0-1-1H45a1 1 0 0 0-1 1v3H42V25a1 1 0 0 0-1-1H37a1 1 0 0 0-1 1v8a1 1 0 0 0 1 1h7v7a1 1 0 0 0 1 1h1.586l-4.293 4.293A1 1 0 0 0 42 47v9H39a1 1 0 0 0-1 1v4a1 1 0 0 0 1 1h8a1 1 0 0 0 1-1V49.414l2-2V50a0.994 0.994 0 0 0 0.187 0.581L54.057 56H53a1 1 0 0 0-1 1v4a1 1 0 0 0 1 1h8a1 1 0 0 0 1-1V57A1.936 1.936 0 0 0 61.925 56.626ZM38 32V26h2v3a1 1 0 0 0 1 1h8a1 1 0 0 1 0 2Zm8 28H40V58h6Zm4-15.414l-3.707 3.707A1 1 0 0 0 46 49v7H44V47.414L49.414 42H50ZM46 40V34h3a3 3 0 0 0 0-6H46V26H56V40Zm6 9.68V42h2v7a1 1 0 0 0 0.2 0.6L59 56H56.515ZM60 60H54V58h6Z" fill="#ffffff" data-fill-palette-color="accent"></path><path d="M57 8H45a1 1 0 0 0-1 1V21a1 1 0 0 0 1 1H57a1 1 0 0 0 1-1V9A1 1 0 0 0 57 8ZM56 20H46V14H56Zm0-8H46V10H56Z" fill="#ffffff" data-fill-palette-color="accent"></path><path d="M31.98 11.8a1 1 0 0 0-0.856-0.8l-6.29-0.786L29.8 3.6a1 1 0 0 0-1.087-1.558l-10 3 0.574 1.916 7.09-2.127L22.2 10.4a1 1 0 0 0 0.676 1.592l5.023 0.628L23.5 15.132a1 1 0 0 0-0.273 1.508l3.04 3.647L21.242 19.03l-0.484 1.94 8 2a1 1 0 0 0 1.011-1.61l-4.237-5.084L31.5 12.868A1 1 0 0 0 31.98 11.8Z" fill="#ffffff" data-fill-palette-color="accent"></path><path d="M42 21a3 3 0 1 0-3 3A3 3 0 0 0 42 21Zm-3 1a1 1 0 1 1 1-1A1 1 0 0 1 39 22Z" fill="#ffffff" data-fill-palette-color="accent"></path><path d="M19.293 38.293l1.414 1.414 3.761-3.761a2.968 2.968 0 0 0 3.478-3.478L29 31.414l2.293 2.293a1 1 0 0 0 1.414 0l2-2-1.414-1.414L32 31.586 30.414 30l3.293-3.293-1.414-1.414L29 28.586 27.414 27l1.293-1.293-1.414-1.414-2 2a1 1 0 0 0 0 1.414L27.586 30l-0.692 0.692A2.972 2.972 0 0 0 25 30a3 3 0 0 0-3 3 2.972 2.972 0 0 0 0.692 1.894ZM25 32a1 1 0 1 1-1 1A1 1 0 0 1 25 32Z" fill="#ffffff" data-fill-palette-color="accent"></path></g></svg></g></svg></g></svg></g><defs></defs></svg><rect width="395.52" height="84.70326240325693" fill="none" stroke="none" visibility="hidden"></rect></g></svg></g></svg>